<svg width="20" height="20" viewBox="0 0 20 20" fill="none" xmlns="http://www.w3.org/2000/svg">
<path d="M9.99993 0C8.24921 0.000459289 6.52928 0.460382 5.01203 1.3338C3.49478 2.20722 2.23336 3.46354 1.35385 4.9772C0.47433 6.49085 0.00752655 8.20883 9.02575e-05 9.95941C-0.00734604 11.71 0.444846 13.4319 1.31147 14.953L0.410974 18.1043C0.352204 18.3101 0.349525 18.5278 0.403216 18.7349C0.456906 18.9421 0.565011 19.1311 0.71633 19.2824C0.867649 19.4337 1.05668 19.5418 1.26383 19.5954C1.47097 19.6491 1.68871 19.6464 1.89447 19.5876L5.04615 18.6873C6.37675 19.4459 7.86381 19.8887 9.39265 19.9816C10.9215 20.0745 12.4512 19.815 13.8639 19.2232C15.2766 18.6313 16.5344 17.7229 17.5404 16.5681C18.5464 15.4132 19.2737 14.0427 19.6662 12.5622C20.0586 11.0818 20.1057 9.531 19.8039 8.02947C19.5021 6.52794 18.8594 5.1158 17.9254 3.90196C16.9914 2.68812 15.791 1.70502 14.4169 1.02849C13.0428 0.351967 11.5316 8.87404e-05 9.99993 0ZM9.99993 19.1987C8.34764 19.1998 6.72563 18.7553 5.30475 17.912C5.2579 17.8842 5.20584 17.8661 5.15177 17.8591C5.0977 17.8521 5.04277 17.8562 4.99035 17.8712L1.67467 18.8185C1.60608 18.8381 1.53351 18.8389 1.46448 18.821C1.39544 18.8031 1.33244 18.7671 1.28202 18.7167C1.23159 18.6662 1.19556 18.6032 1.17768 18.5342C1.15979 18.4652 1.16068 18.3926 1.18027 18.324L2.12747 15.0086C2.14244 14.9562 2.14655 14.9013 2.13953 14.8472C2.13252 14.7932 2.11453 14.7411 2.08667 14.6943C1.05045 12.9486 0.620722 10.9092 0.864417 8.89391C1.10811 6.87857 2.01155 5.0004 3.43399 3.55199C4.85643 2.10358 6.71801 1.16625 8.72872 0.886025C10.7394 0.605797 12.7864 0.998403 14.5507 2.00268C16.315 3.00697 17.6976 4.56653 18.4831 6.43843C19.2687 8.31033 19.413 10.3895 18.8936 12.3519C18.3743 14.3144 17.2204 16.05 15.6118 17.2884C14.0032 18.5268 12.0301 19.1984 9.99993 19.1987V19.1987ZM15.0511 11.8535L13.0051 10.6845C12.82 10.5788 12.6101 10.5243 12.397 10.5266C12.1839 10.5289 11.9752 10.5878 11.7924 10.6974L10.4117 11.5257C9.57593 11.1022 8.89697 10.4233 8.47353 9.58753L9.30193 8.20692C9.41147 8.02412 9.47039 7.81545 9.47264 7.60235C9.47489 7.38925 9.42039 7.17939 9.31473 6.99431L8.14574 4.94845C8.05027 4.7819 7.91257 4.64346 7.74651 4.54711C7.58046 4.45077 7.39193 4.39992 7.19994 4.39969C6.35339 4.3999 5.5414 4.73544 4.94167 5.33287C4.34195 5.93031 4.00334 6.74098 3.99996 7.58747C3.99839 8.69149 4.21451 9.78499 4.63594 10.8054C5.05736 11.8259 5.67584 12.7532 6.45599 13.5344C7.23615 14.3157 8.16267 14.9354 9.18256 15.3583C10.2025 15.7812 11.2957 15.9989 12.3998 15.9989H12.4118C13.2584 15.9955 14.0691 15.6569 14.6666 15.0573C15.2641 14.4576 15.5997 13.6456 15.5999 12.7991C15.5997 12.6071 15.5488 12.4186 15.4525 12.2526C15.3561 12.0866 15.2177 11.9489 15.0511 11.8535V11.8535ZM12.4107 15.1989H12.3999C11.401 15.1989 10.4118 15.002 9.48906 14.6194C8.56629 14.2369 7.72801 13.6761 7.02214 12.9693C6.31628 12.2625 5.7567 11.4235 5.37539 10.5002C4.99409 9.577 4.79855 8.58764 4.79995 7.58877C4.8027 6.95412 5.05678 6.34642 5.50658 5.89866C5.95637 5.45089 6.56525 5.19955 7.19994 5.19964C7.25092 5.1997 7.30099 5.2132 7.34509 5.23878C7.38919 5.26435 7.42577 5.3011 7.45114 5.34533L8.62013 7.39128C8.65535 7.45297 8.67352 7.52291 8.67278 7.59394C8.67205 7.66496 8.65243 7.73451 8.61593 7.79545L7.67694 9.36014C7.64373 9.41546 7.62441 9.478 7.62061 9.5424C7.61682 9.60681 7.62866 9.67118 7.65514 9.73002C8.17723 10.8919 9.10736 11.8219 10.2693 12.3439C10.3282 12.3704 10.3925 12.3823 10.457 12.3785C10.5214 12.3747 10.5839 12.3554 10.6392 12.3221L12.2039 11.3832C12.2649 11.3467 12.3344 11.3271 12.4055 11.3263C12.4765 11.3256 12.5465 11.3437 12.6082 11.3789L14.6542 12.548C14.6984 12.5734 14.7352 12.6099 14.7608 12.654C14.7864 12.6981 14.7999 12.7481 14.7999 12.7991C14.8 13.4337 14.5486 14.0426 14.1009 14.4923C13.6531 14.9421 13.0454 15.1962 12.4107 15.1989Z" fill="black"/>
</svg>
