<svg width="14" height="16" viewBox="0 0 14 16" fill="none" xmlns="http://www.w3.org/2000/svg">
<path d="M1.40841 6.816L0.863347 6.75627L1.40841 6.816ZM0.555171 14.2827L1.10024 14.3413L0.555171 14.2827ZM13.4459 14.2827L12.9009 14.3413L13.4459 14.2827ZM12.5927 6.816L13.1378 6.75627L12.5927 6.816ZM0.863347 6.75627L0.0101049 14.2229L1.10024 14.3403L1.95348 6.8736L0.863347 6.75627ZM1.6453 16H12.3558V14.9333H1.6453V16ZM13.991 14.2229L13.1378 6.75627L12.0476 6.8736L12.9009 14.3403L13.9899 14.2229H13.991ZM11.5015 5.33333H2.49964V6.4H11.5036V5.33333H11.5015ZM13.1378 6.75627C13.093 6.36496 12.9014 6.00346 12.5997 5.74093C12.298 5.4784 11.9074 5.33328 11.5026 5.33333V6.4C11.6375 6.39999 11.7678 6.44841 11.8684 6.536C11.9689 6.62358 12.0328 6.74417 12.0476 6.87467L13.1378 6.75733V6.75627ZM12.3558 16C12.5871 15.9999 12.8158 15.9523 13.027 15.8604C13.2381 15.7685 13.4269 15.6343 13.5811 15.4666C13.7353 15.2989 13.8515 15.1015 13.9219 14.8872C13.9923 14.6729 14.0155 14.4465 13.9899 14.2229L12.9009 14.3403C12.9095 14.4149 12.9019 14.4904 12.8784 14.562C12.855 14.6335 12.8162 14.6995 12.7648 14.7554C12.7133 14.8114 12.6503 14.8562 12.5798 14.8869C12.5093 14.9175 12.433 14.9334 12.3558 14.9333V16ZM0.0101049 14.2229C-0.0155049 14.4466 0.00769738 14.6731 0.0781961 14.8874C0.148695 15.1018 0.264904 15.2993 0.41923 15.467C0.573557 15.6347 0.762529 15.7689 0.9738 15.8607C1.18507 15.9526 1.41389 16 1.6453 16V14.9333C1.5682 14.9333 1.49196 14.9175 1.42157 14.8869C1.35117 14.8563 1.2882 14.8117 1.23676 14.7558C1.18533 14.6999 1.14658 14.6341 1.12306 14.5627C1.09953 14.4913 1.09176 14.4159 1.10024 14.3413L0.0101049 14.224V14.2229ZM1.95348 6.8736C1.96858 6.74329 2.03251 6.62296 2.13306 6.5356C2.2336 6.44824 2.36372 6.39996 2.49854 6.4V5.33333C2.09392 5.33354 1.70356 5.47878 1.4021 5.74128C1.10064 6.00379 0.909222 6.36514 0.864444 6.75627L1.95348 6.8736ZM4.25877 4.26667V3.73333H3.16206V4.26667H4.25877ZM9.74233 3.73333V4.26667H10.839V3.73333H9.74233ZM7.00055 1.06667C7.72771 1.06667 8.4251 1.34762 8.93928 1.84772C9.45346 2.34781 9.74233 3.02609 9.74233 3.73333H10.839C10.839 2.74319 10.4346 1.7936 9.71477 1.09347C8.99492 0.393332 8.01858 0 7.00055 0V1.06667ZM4.25877 3.73333C4.25877 3.02609 4.54763 2.34781 5.06182 1.84772C5.576 1.34762 6.27338 1.06667 7.00055 1.06667V0C5.98252 0 5.00618 0.393332 4.28632 1.09347C3.56647 1.7936 3.16206 2.74319 3.16206 3.73333H4.25877Z" fill="black"/>
</svg>
