<svg width="14" height="16" viewBox="0 0 14 16" fill="none" xmlns="http://www.w3.org/2000/svg">
<path d="M4.14101 3.73333C4.14101 3.02609 4.42196 2.34781 4.92206 1.84772C5.42215 1.34762 6.10043 1.06667 6.80767 1.06667C7.51492 1.06667 8.1932 1.34762 8.69329 1.84772C9.19339 2.34781 9.47434 3.02609 9.47434 3.73333V4.26667H10.541V3.73333C10.541 2.74319 10.1477 1.7936 9.44754 1.09347C8.7474 0.393332 7.79782 0 6.80767 0C5.81753 0 4.86794 0.393332 4.16781 1.09347C3.46767 1.7936 3.07434 2.74319 3.07434 3.73333V4.26667H4.14101V3.73333Z" fill="black"/>
<path d="M0.838628 6.75628C0.8822 6.36497 1.06853 6.00347 1.36195 5.74094C1.65538 5.47841 2.0353 5.33329 2.42903 5.33334H11.1864C11.5799 5.33355 11.9596 5.47879 12.2528 5.74129C12.546 6.0038 12.7321 6.36515 12.7757 6.75628L13.6066 14.2229C13.6315 14.4466 13.609 14.6731 13.5404 14.8874C13.4718 15.1018 13.3588 15.2993 13.2087 15.467C13.0586 15.6347 12.8748 15.7689 12.6693 15.8607C12.4639 15.9526 12.2413 16 12.0162 16H1.59916C1.37418 15.9999 1.15175 15.9523 0.946392 15.8604C0.741036 15.7685 0.557372 15.6343 0.407389 15.4666C0.257407 15.2989 0.144477 15.1015 0.0759727 14.8872C0.00746848 14.6729 -0.0150702 14.4465 0.00982803 14.2229L0.838628 6.75628Z" fill="black"/>
</svg>
