<svg width="18" height="16" viewBox="0 0 18 16" fill="none" xmlns="http://www.w3.org/2000/svg">
<path d="M13.3586 16C13.1905 15.9995 13.0229 15.9821 12.8586 15.9479C9.73196 15.3353 6.85145 13.899 4.54864 11.8043C2.29498 9.70494 0.731939 7.03205 0.0486424 4.10899C-0.0319269 3.74468 -0.012152 3.36688 0.106065 3.01191C0.224281 2.65694 0.436961 2.33676 0.723642 2.08217L2.72364 0.25898C2.8258 0.167483 2.94717 0.0974166 3.07985 0.0533536C3.21253 0.00929051 3.35353 -0.00777876 3.49364 0.00325979C3.63892 0.0176147 3.77912 0.0619396 3.90438 0.133118C4.02963 0.204296 4.1369 0.300598 4.21864 0.415253L6.71864 3.91483C6.81239 4.05062 6.85765 4.21132 6.84775 4.37329C6.83785 4.53526 6.77331 4.68995 6.66364 4.81458L5.40864 6.23525C5.90847 7.28297 6.61631 8.2299 7.49364 9.02449C8.36529 9.84791 9.39556 10.5054 10.5286 10.9613L12.0836 9.79165C12.2142 9.69389 12.3732 9.6361 12.5393 9.62595C12.7054 9.6158 12.8709 9.65377 13.0136 9.73483L16.7886 12.0458C16.9182 12.119 17.0286 12.2191 17.1115 12.3385C17.1944 12.4579 17.2477 12.5935 17.2674 12.7352C17.2871 12.8768 17.2727 13.0209 17.2253 13.1566C17.1779 13.2922 17.0987 13.416 16.9936 13.5185L15.0436 15.3465C14.8221 15.5552 14.5592 15.7204 14.2701 15.8326C13.9809 15.9447 13.6711 16.0016 13.3586 16ZM3.41364 0.9409L1.41364 2.76409C1.25237 2.90642 1.13299 3.08605 1.06724 3.28532C1.00148 3.4846 0.991631 3.69665 1.03864 3.90062C1.674 6.64352 3.1345 9.15344 5.24364 11.1271C7.41074 13.0978 10.1214 14.4488 13.0636 15.0244C13.2863 15.0685 13.5171 15.0596 13.7353 14.9984C13.9534 14.9373 14.1522 14.8258 14.3136 14.674L16.2636 12.8461L12.6186 10.6156L10.9486 11.8753C10.8847 11.9232 10.8094 11.9556 10.7292 11.9696C10.649 11.9837 10.5664 11.9789 10.4886 11.9558C9.10199 11.4719 7.84537 10.7038 6.80864 9.70641C5.73632 8.75798 4.90395 7.59246 4.37364 6.29681C4.35121 6.21838 4.35046 6.13579 4.37148 6.057C4.39249 5.97821 4.43456 5.90587 4.49364 5.84694L5.84364 4.31735L3.41364 0.9409Z" fill="black"/>
</svg>
