<svg width="16" height="16" viewBox="0 0 16 16" fill="none" xmlns="http://www.w3.org/2000/svg">
<path d="M15.8598 15.1406L11.0146 10.25C11.9805 9.09375 12.4635 7.76042 12.4635 6.25C12.4635 5.11458 12.1857 4.06771 11.63 3.10938C11.0743 2.15104 10.3161 1.39323 9.3554 0.835938C8.39468 0.278646 7.35086 0 6.22395 0C5.09705 0 4.05583 0.278646 3.10029 0.835938C2.14476 1.39323 1.38916 2.15104 0.833496 3.10938C0.277832 4.06771 0 5.11458 0 6.25C0 7.38542 0.277832 8.43229 0.833496 9.39062C1.38916 10.349 2.14476 11.1068 3.10029 11.6641C4.05583 12.2214 5.09964 12.5 6.23174 12.5C7.77929 12.5 9.13989 11.9896 10.3135 10.9688L15.1431 15.8438C15.247 15.9479 15.3664 16 15.5015 16C15.6365 16 15.7533 15.9505 15.852 15.8516C15.9507 15.7526 16 15.6328 16 15.4922C16 15.3516 15.9533 15.2344 15.8598 15.1406ZM6.23174 11.5156C5.27621 11.5156 4.39598 11.2786 3.59104 10.8047C2.78611 10.3307 2.14995 9.6901 1.68257 8.88281C1.21519 8.07552 0.9815 7.19792 0.9815 6.25C0.9815 5.30208 1.21519 4.42448 1.68257 3.61719C2.14995 2.8099 2.78611 2.16927 3.59104 1.69531C4.39598 1.22135 5.27361 0.984375 6.22395 0.984375C7.17429 0.984375 8.05193 1.22135 8.85686 1.69531C9.6618 2.16927 10.298 2.8099 10.7653 3.61719C11.2327 4.42448 11.4664 5.30208 11.4664 6.25C11.4664 6.65625 11.4197 7.05729 11.3262 7.45312C11.2327 7.84896 11.1003 8.21875 10.9289 8.5625C10.7575 8.90625 10.5524 9.23177 10.3135 9.53906C10.0747 9.84635 9.80461 10.1198 9.50341 10.3594C9.20221 10.599 8.88023 10.8047 8.53749 10.9766C8.19474 11.1484 7.82603 11.2812 7.43135 11.375C7.03668 11.4688 6.63681 11.5156 6.23174 11.5156Z" fill="black"/>
</svg>
