<svg width="16" height="16" viewBox="0 0 16 16" fill="none" xmlns="http://www.w3.org/2000/svg">
<path fill-rule="evenodd" clip-rule="evenodd" d="M3.54388 1.38178C4.41415 0.789222 5.39298 0.375032 6.42394 0.163108C7.45489 -0.0488166 8.51755 -0.0542814 9.55063 0.147028C10.5837 0.348338 11.5667 0.752439 12.443 1.33602C13.3193 1.9196 14.0715 2.67111 14.6563 3.5472C15.241 4.42329 15.6467 5.40662 15.8499 6.44047C16.0532 7.47432 16.0499 8.53823 15.8404 9.57082C15.6309 10.6034 15.2192 11.5842 14.6292 12.4568C14.0391 13.3293 13.2824 14.0762 12.4025 14.6544C10.6445 15.8307 8.49179 16.2595 6.41791 15.8467C4.34404 15.4339 2.51891 14.2132 1.34403 12.4531C0.169146 10.6931 -0.259245 8.53784 0.153094 6.46156C0.565434 4.38528 1.78473 2.55803 3.54275 1.38178H3.54388ZM4.17713 13.7069C4.92321 14.2116 5.76156 14.5637 6.64399 14.7429C7.52642 14.9222 8.43555 14.9251 9.31911 14.7515C10.2027 14.5779 11.0433 14.2312 11.7925 13.7313C12.5418 13.2314 13.1851 12.5881 13.6852 11.8386C14.1854 11.089 14.5327 10.2478 14.7072 9.36345C14.8816 8.47906 14.8798 7.56888 14.7017 6.68521C14.5237 5.80154 14.1729 4.96182 13.6697 4.21429C13.1665 3.46676 12.5206 2.82617 11.7693 2.32934C10.2622 1.33273 8.42228 0.97399 6.65176 1.33155C4.88124 1.68911 3.32412 2.73388 2.32077 4.23749C1.31743 5.74109 0.949463 7.58123 1.29732 9.35566C1.64517 11.1301 2.68056 12.6945 4.17713 13.7069ZM6.26481 6.87784C6.26481 7.18025 6.14481 7.47028 5.93122 7.68412C5.71763 7.89796 5.42793 8.0181 5.12587 8.0181C4.8238 8.0181 4.53411 7.89796 4.32052 7.68412C4.10693 7.47028 3.98693 7.18025 3.98693 6.87784C3.98693 6.57542 4.10693 6.28539 4.32052 6.07155C4.53411 5.85771 4.8238 5.73758 5.12587 5.73758C5.42793 5.73758 5.71763 5.85771 5.93122 6.07155C6.14481 6.28539 6.26481 6.57542 6.26481 6.87784ZM11.9595 6.87784C11.9595 7.18025 11.8395 7.47028 11.6259 7.68412C11.4123 7.89796 11.1226 8.0181 10.8206 8.0181C10.5185 8.0181 10.2288 7.89796 10.0152 7.68412C9.80161 7.47028 9.68162 7.18025 9.68162 6.87784C9.68162 6.57542 9.80161 6.28539 10.0152 6.07155C10.2288 5.85771 10.5185 5.73758 10.8206 5.73758C11.1226 5.73758 11.4123 5.85771 11.6259 6.07155C11.8395 6.28539 11.9595 6.57542 11.9595 6.87784ZM7.97321 11.4389C7.35432 11.4404 6.74664 11.2736 6.21506 10.9563C5.68348 10.639 5.24797 10.1831 4.95503 9.63727L3.96415 10.1846C4.36295 10.9234 4.95776 11.5377 5.68303 11.9597C6.4083 12.3817 7.23586 12.595 8.0745 12.5761C8.91314 12.5573 9.73029 12.3069 10.4359 11.8528C11.1415 11.3986 11.7081 10.7582 12.0734 10.0021L11.0483 9.51184C10.7682 10.0897 10.3312 10.5769 9.78733 10.9177C9.24349 11.2585 8.6148 11.4391 7.97321 11.4389Z" fill="black"/>
</svg>
