<svg width="90" height="54" viewBox="0 0 90 54" fill="none" xmlns="http://www.w3.org/2000/svg">
<path fill-rule="evenodd" clip-rule="evenodd" d="M44.8674 47.0008C49.7692 51.5115 56.1901 54.0104 62.8514 54C69.9825 53.9546 76.8061 51.09 81.8326 46.0315C86.8591 40.9729 89.6803 34.1312 89.6803 27C89.6803 19.8688 86.8591 13.0271 81.8326 7.96854C76.8061 2.90998 69.9825 0.0453659 62.8514 3.41526e-05C56.19 -0.0106554 49.769 2.48831 44.8674 6.9992C42.079 9.53167 39.8509 12.6192 38.3262 16.0636C36.8015 19.508 36.0139 23.2332 36.0139 27C36.0139 30.7668 36.8015 34.492 38.3262 37.9364C39.8509 41.3808 42.079 44.4683 44.8674 47.0008Z" fill="#E9B040"/>
<path fill-rule="evenodd" clip-rule="evenodd" d="M53.5352 24.1495C53.4424 23.1762 53.2569 22.2494 53.0715 21.2756H36.663C36.8612 20.3206 37.1086 19.3765 37.4044 18.447H52.2837C51.9608 17.4713 51.59 16.5133 51.1714 15.5732H38.5636C39.0273 14.5912 39.5365 13.6333 40.0911 12.6993H49.5937C48.9823 11.7094 48.3008 10.7645 47.5545 9.87184H42.133C42.972 8.8473 43.8861 7.88669 44.8678 6.99798C41.6167 4.09233 37.7086 2.01972 33.4794 0.958327C29.2502 -0.103065 24.8266 -0.121479 20.5887 0.904671C16.3508 1.93082 12.4256 3.97083 9.15043 6.84932C5.87526 9.7278 3.34816 13.3586 1.7864 17.4297C0.22463 21.5007 -0.325078 25.8901 0.184534 30.2205C0.694146 34.551 2.24783 38.6929 4.71201 42.2901C7.17619 45.8874 10.4771 48.8324 14.3311 50.8719C18.185 52.9114 22.4766 53.9844 26.8369 53.9987C33.5122 54.0094 39.9479 51.5112 44.8678 46.9996C45.8345 46.1264 46.7334 45.181 47.5567 44.1716H42.133C41.4008 43.2518 40.7198 42.2924 40.0933 41.2977H49.5959C50.1934 40.3811 50.7203 39.4204 51.1719 38.4238H38.5636C38.1297 37.5014 37.7427 36.5575 37.4044 35.5958H52.2837C52.5954 34.652 52.8581 33.6928 53.0709 32.7219C53.2743 31.7725 53.4291 30.8133 53.5346 29.8481C53.6286 28.9083 53.6752 27.9645 53.6743 27.0201C53.6743 26.0485 53.6279 25.0752 53.5352 24.1484V24.1495Z" fill="#CC2131"/>
<path fill-rule="evenodd" clip-rule="evenodd" d="M86.1207 33.2808C86.1156 33.1677 86.1333 33.0548 86.1728 32.9487C86.2123 32.8427 86.2729 32.7457 86.3507 32.6635C86.4286 32.5814 86.5222 32.5158 86.626 32.4706C86.7298 32.4255 86.8417 32.4018 86.9549 32.4009C87.0715 32.3969 87.1877 32.417 87.2962 32.4598C87.4048 32.5026 87.5034 32.5673 87.5859 32.6498C87.6684 32.7323 87.7331 32.8309 87.7759 32.9395C87.8187 33.048 87.8388 33.1642 87.8348 33.2808C87.8389 33.3959 87.8198 33.5107 87.7786 33.6183C87.7373 33.7258 87.6749 33.824 87.5949 33.9069C87.5149 33.9898 87.419 34.0557 87.313 34.1007C87.207 34.1458 87.093 34.169 86.9778 34.169C86.8626 34.169 86.7486 34.1458 86.6425 34.1007C86.5365 34.0557 86.4406 33.9898 86.3607 33.9069C86.2807 33.824 86.2182 33.7258 86.177 33.6183C86.1358 33.5107 86.1166 33.3959 86.1207 33.2808ZM86.9549 33.9295C87.0439 33.9358 87.1333 33.9237 87.2175 33.894C87.3017 33.8643 87.3788 33.8175 87.4442 33.7567C87.5095 33.6958 87.5616 33.6222 87.5972 33.5403C87.6329 33.4584 87.6512 33.3701 87.6512 33.2808C87.6512 33.1915 87.6329 33.1032 87.5972 33.0214C87.5616 32.9395 87.5095 32.8658 87.4442 32.805C87.3788 32.7441 87.3017 32.6974 87.2175 32.6677C87.1333 32.6379 87.0439 32.6259 86.9549 32.6322C86.7828 32.6322 86.6178 32.7005 86.4962 32.8222C86.3746 32.9438 86.3062 33.1088 86.3062 33.2808C86.3062 33.4528 86.3746 33.6178 86.4962 33.7395C86.6178 33.8611 86.7828 33.9295 86.9549 33.9295ZM86.8621 33.6512H86.6766V32.9099H87.1862C87.2789 32.9568 87.2789 33.0495 87.2789 33.1423C87.2725 33.1821 87.2566 33.2198 87.2325 33.2521C87.2083 33.2844 87.1767 33.3103 87.1403 33.3277L87.3258 33.6518H87.0934L87.0007 33.3736H86.8621V33.2345H86.9549C87.0007 33.2345 87.0476 33.2345 87.0476 33.1875C87.0934 33.1875 87.0934 33.1417 87.0934 33.0948C87.0936 33.0887 87.0925 33.0827 87.0902 33.0771C87.088 33.0715 87.0846 33.0663 87.0803 33.0621C87.076 33.0578 87.0709 33.0544 87.0653 33.0522C87.0597 33.0499 87.0537 33.0488 87.0476 33.049C87.0476 33.0021 87.0007 33.049 86.9549 33.049H86.8621V33.6512Z" fill="white"/>
<path fill-rule="evenodd" clip-rule="evenodd" d="M35.7361 34.8105C35.0291 35.0276 34.2969 35.1523 33.5578 35.1814C32.1673 35.1814 31.3326 34.3004 31.3326 32.7265C31.3425 32.384 31.3734 32.0424 31.4254 31.7037L31.6108 30.6382L31.75 29.7572L33.0014 22.1569H35.7836L35.4563 23.8256H37.2189L36.8016 26.6079H35.0406L34.2992 31.1499C34.2669 31.3024 34.2513 31.4578 34.2528 31.6136C34.2528 32.2165 34.5311 32.4478 35.2261 32.4478C35.5217 32.4426 35.8163 32.4115 36.1066 32.355L35.7361 34.8099V34.8105ZM44.7287 34.7177C43.7637 34.9925 42.7654 35.1327 41.7621 35.1345C38.61 35.1345 36.8021 33.4657 36.8021 30.1756C36.8021 26.328 38.9346 23.5469 41.9006 23.5469C44.2644 23.5469 45.7941 25.1229 45.7941 27.5789C45.7849 28.4997 45.6763 29.4168 45.4701 30.3142H39.6738C39.6406 30.435 39.625 30.5599 39.6274 30.6852C39.6274 31.983 40.5079 32.6316 42.1767 32.6316C43.2203 32.628 44.2498 32.3907 45.1897 31.9371L44.7287 34.7177ZM43.0135 28.0895V27.5331C43.0374 27.3427 43.0183 27.1494 42.9576 26.9673C42.8969 26.7853 42.7961 26.6192 42.6626 26.4813C42.5292 26.3435 42.3665 26.2373 42.1866 26.1706C42.0066 26.1039 41.814 26.0785 41.623 26.0961C40.6956 26.0961 40.0469 26.7912 39.7682 28.089H43.013L43.0135 28.0895ZM13.4883 34.949H10.6134L12.2821 24.4279L8.52779 34.949H6.53497L6.30312 24.4748L4.5416 34.949H1.71411L3.98516 21.2758H8.2032L8.29594 29.7125L11.1234 21.2758H15.7604L13.4883 34.949ZM20.488 29.9901C20.3047 29.9548 20.1182 29.9391 19.9316 29.9432C18.2628 29.9432 17.4287 30.5919 17.4287 31.612C17.413 31.7602 17.429 31.91 17.4758 32.0515C17.5225 32.1929 17.5988 32.3228 17.6997 32.4325C17.8005 32.5422 17.9236 32.6291 18.0607 32.6875C18.1977 32.746 18.3457 32.7745 18.4946 32.7713C19.8852 32.7713 20.4411 31.612 20.488 29.9891V29.9901ZM22.8054 34.949H20.3014L20.3478 33.7909C19.6986 34.6708 18.8203 35.1345 17.2885 35.1345C15.8979 35.1345 14.6928 33.8836 14.6928 32.0757C14.6983 31.5881 14.7764 31.1039 14.9247 30.6393C15.3878 28.9236 17.103 27.8571 19.745 27.8113C20.0723 27.8113 20.5791 27.8113 21.0428 27.8582C21.1111 27.617 21.1422 27.3668 21.135 27.1163C21.135 26.3744 20.5349 26.1425 19.1886 26.1425C18.3706 26.1379 17.5571 26.2632 16.7784 26.5135L16.3611 26.6062L16.1756 26.652L16.5929 24.1491C17.6815 23.7712 18.8231 23.5687 19.9752 23.5491C22.4781 23.5491 23.8223 24.7078 23.8223 26.8397C23.8517 27.5688 23.805 28.2991 23.6832 29.0186L23.0351 33.0026L22.9424 33.6981L22.896 34.2546L22.8496 34.6255L22.8032 34.949H22.8054ZM58.7281 23.9178C59.641 23.9485 60.5323 24.2031 61.3237 24.6592L61.8333 21.6926C61.5921 21.5847 61.3445 21.4918 61.0919 21.4144L59.9337 21.0871C59.4926 20.9876 59.0412 20.9409 58.589 20.948C57.1515 20.948 56.3174 20.9943 55.4374 21.5044C54.8034 21.922 54.2266 22.4206 53.7218 22.9877L53.3508 22.895L50.3842 24.9805L50.5239 23.8218H47.464L45.6572 34.9457H48.5779L49.6434 28.9673C49.6434 28.9673 50.0612 28.1321 50.2462 27.8549C50.4263 27.6009 50.673 27.4016 50.9592 27.2788C51.2454 27.1561 51.5599 27.1148 51.868 27.1594H52.1004C52.0031 27.8658 51.9565 28.5783 51.9608 29.2913C51.9608 32.9066 54 35.1781 57.1521 35.1781C58.015 35.1726 58.8731 35.0477 59.7019 34.8072L60.2125 31.6557C59.4683 32.1024 58.6247 32.3572 57.7576 32.397C56.043 32.397 55.0223 31.0992 55.0223 29.06C55.0223 26.047 56.5498 23.9151 58.7319 23.9151L58.7281 23.9178ZM83.3397 21.2758L82.6916 25.1693C82.4345 24.6925 82.053 24.2942 81.5878 24.0168C81.1225 23.7393 80.5908 23.5929 80.0491 23.5933C79.2338 23.6171 78.4415 23.8685 77.7616 24.319C77.0817 24.7695 76.5413 25.4011 76.2014 26.1425V26.0967L74.3466 24.9838L74.5321 23.8251H71.4264L69.6649 34.949H72.5387L73.5125 28.9705C73.5125 28.9705 74.2539 28.1353 74.4399 27.8582C74.5955 27.6579 74.7914 27.4924 75.015 27.3726C75.2385 27.2528 75.4848 27.1813 75.7377 27.1627C75.3856 28.2236 75.2134 29.3361 75.2282 30.4538C75.2282 33.2361 76.6646 35.0909 78.7965 35.0909C79.3105 35.1011 79.8199 34.9936 80.2859 34.7766C80.7519 34.5596 81.162 34.2388 81.4849 33.8389L81.3464 34.9512H84.08L86.3047 21.278H83.3375L83.3397 21.2758ZM79.7703 32.3076C78.7965 32.3076 78.287 31.5662 78.287 30.1287C78.287 27.9499 79.2144 26.3744 80.5575 26.3744C81.5771 26.3744 82.085 27.1627 82.085 28.5532C82.085 30.7779 81.1576 32.3076 79.7676 32.3076H79.7703ZM66.3753 29.9901C66.192 29.9548 66.0055 29.9391 65.8189 29.9432C64.149 29.9432 63.3149 30.5919 63.3149 31.612C63.2993 31.7602 63.3154 31.91 63.3622 32.0515C63.409 32.193 63.4854 32.3229 63.5863 32.4325C63.6872 32.5422 63.8103 32.6291 63.9474 32.6875C64.0845 32.7459 64.2324 32.7745 64.3814 32.7713C65.772 32.7713 66.3284 31.612 66.3753 29.9901ZM68.6928 34.949H66.1429L66.2357 33.7909C65.5871 34.6708 64.7082 35.1345 63.1769 35.1345C61.7394 35.1345 60.4885 33.9294 60.4885 32.0757C60.4885 29.4342 62.4808 27.8118 65.6329 27.8118C66.0507 27.8057 66.4686 27.8214 66.8849 27.8588C66.9641 27.6187 67.011 27.3692 67.0245 27.1168C67.0245 26.3749 66.4244 26.1431 65.0312 26.1431C64.2135 26.1421 63.4005 26.2672 62.621 26.514L62.25 26.6068L62.0646 26.6526L62.4813 24.1497C63.5699 23.7719 64.7116 23.5694 65.8636 23.5496C68.3665 23.5496 69.6644 24.7083 69.6644 26.8402C69.7182 27.5695 69.6715 28.3026 69.5258 29.0191L68.9257 33.0053L68.833 33.7008L68.7402 34.2573L68.6944 34.6283V34.9512L68.6928 34.949ZM28.8761 26.1889C29.6062 26.1928 30.3347 26.2548 31.0549 26.3744L31.4723 23.7787C30.6376 23.686 29.5253 23.5469 28.8761 23.5469C25.6318 23.5469 24.5664 25.3084 24.5664 27.3476C24.5664 28.6923 25.1665 29.665 26.7447 30.4064C27.9034 30.9628 28.0889 31.055 28.0889 31.5656C28.0889 32.2601 27.4888 32.678 26.3737 32.678C25.4728 32.6779 24.5788 32.521 23.7317 32.2143L23.4044 34.763L23.4502 34.8099L24.0067 34.9027C24.2514 34.9616 24.4991 35.0078 24.7486 35.0412C25.4436 35.0881 26.0464 35.134 26.4174 35.134C29.6622 35.134 31.0064 33.8831 31.0064 31.4243C31.0064 29.8969 30.2645 28.9695 28.8275 28.3197C27.5761 27.7627 27.437 27.6711 27.437 27.1605C27.437 26.6499 27.9934 26.1872 28.8739 26.1872L28.8761 26.1889Z" fill="#1B3771"/>
<path fill-rule="evenodd" clip-rule="evenodd" d="M62.6203 20.8119L62.1097 23.7785C61.3184 23.3221 60.427 23.0675 59.514 23.0371C57.3352 23.0371 55.8044 25.1691 55.8044 28.182C55.8044 30.2681 56.824 31.519 58.5397 31.519C59.4 31.4763 60.2394 31.2389 60.9946 30.8246L60.4851 33.9292C59.6577 34.1821 58.8001 34.3226 57.9353 34.3471C54.7837 34.3471 52.8367 32.0755 52.8367 28.4144C52.8367 23.5472 55.5251 20.1169 59.3722 20.1169C59.824 20.1099 60.2751 20.1566 60.7158 20.256L61.8751 20.5342C62.2466 20.6733 62.3393 20.7197 62.6176 20.8119H62.6203ZM53.2573 22.8516H52.9791C52.0064 22.8516 51.4516 23.3153 50.569 24.659L50.8472 22.9438H48.2046L46.3978 34.0683H49.3186C50.384 27.2546 50.6623 26.0959 52.0528 26.0959H52.2383C52.4513 24.9813 52.8261 23.9038 53.3506 22.8975L53.2573 22.8516ZM36.4779 33.9292C35.8101 34.1753 35.104 34.3009 34.3923 34.3002C32.909 34.3002 32.0744 33.466 32.0744 31.8453C32.0845 31.519 32.1154 31.1938 32.1671 30.8715L32.3526 29.7592L32.4917 28.8792L33.7432 21.2767H36.6186L36.2913 22.9455H37.7746L37.4037 25.6802H35.9215L35.1337 30.3172C35.0975 30.469 35.082 30.625 35.0873 30.7809C35.0873 31.3374 35.3656 31.5692 36.0606 31.5692C36.3267 31.5933 36.595 31.5617 36.8483 31.4765L36.4779 33.9314V33.9292ZM25.3071 26.4663C25.3071 27.8574 25.9557 28.8301 27.4854 29.572C28.6904 30.1285 28.8759 30.3134 28.8759 30.7771C28.8759 31.4727 28.3659 31.7967 27.2071 31.7967C26.3258 31.7907 25.4505 31.6501 24.6115 31.3799L24.1942 33.9287L24.3333 33.9756L24.8434 34.0683C25.1008 34.1334 25.3656 34.1646 25.6311 34.161C26.1535 34.2307 26.6802 34.2617 27.2071 34.2538C30.2659 34.2538 31.7034 33.0945 31.7034 30.5442C31.7034 29.014 31.1033 28.1329 29.6642 27.4385C28.4128 26.8842 28.272 26.7456 28.272 26.2356C28.272 25.6355 28.7821 25.3551 29.709 25.3551C30.4064 25.3612 31.103 25.4077 31.7951 25.4942L32.2118 22.9449C31.3692 22.8029 30.517 22.7254 29.6626 22.7131C26.4178 22.7131 25.2591 24.4277 25.3054 26.4669L25.3071 26.4663ZM84.8245 34.0683H82.0892L82.2289 33.0018C81.8964 33.3877 81.4832 33.6957 81.0184 33.9039C80.5536 34.1122 80.0486 34.2156 79.5394 34.2069C77.4075 34.2069 76.0169 32.4001 76.0169 29.619C76.0169 25.9094 78.1957 22.7584 80.7445 22.7584C81.2987 22.7615 81.8434 22.9028 82.3292 23.1695C82.815 23.4362 83.2266 23.8199 83.5267 24.2858L84.1753 20.3924H87.0492L84.8245 34.0661V34.0683ZM80.5595 31.4727C81.9043 31.4727 82.8311 29.8966 82.8311 27.7178C82.8311 26.2809 82.3205 25.5389 81.3036 25.5389C80.0058 25.5389 79.0331 27.0664 79.0331 29.2485C79.0331 30.7324 79.5423 31.4741 80.5606 31.4738L80.5595 31.4727ZM45.3771 33.8365C44.4044 34.1523 43.3869 34.3089 42.3642 34.3002C39.1194 34.3002 37.4506 32.5856 37.4506 29.2944C37.4506 25.4937 39.5831 22.6662 42.5033 22.6662C44.9134 22.6662 46.4426 24.2422 46.4426 26.6987C46.436 27.638 46.3114 28.5728 46.0716 29.4809H40.325C40.2897 29.5863 40.2739 29.6972 40.2786 29.8083C40.2786 31.1061 41.1596 31.7547 42.8279 31.7547C43.8741 31.7736 44.9088 31.5347 45.8409 31.0592L45.3771 33.8414V33.8365ZM43.7547 27.2083V26.6524C43.7786 26.462 43.7595 26.2686 43.6988 26.0866C43.6381 25.9046 43.5373 25.7385 43.4038 25.6006C43.2704 25.4627 43.1077 25.3566 42.9278 25.2899C42.7478 25.2232 42.5553 25.1978 42.3642 25.2154C41.4368 25.2154 40.7881 25.911 40.5094 27.2083H43.7542H43.7547ZM14.229 34.0689H11.3551L13.0239 23.5467L9.26954 34.0689H7.27617L7.04432 23.6394L5.28335 34.0689H2.59497L4.86874 20.3951H9.04042L9.17844 28.8776L11.9606 20.3951H16.5033L14.2322 34.0689H14.229ZM21.4136 29.1089C21.1354 29.1089 20.9963 29.0631 20.7644 29.0631C19.142 29.0631 18.3095 29.6631 18.3095 30.7777C18.2895 30.9205 18.3012 31.066 18.344 31.2037C18.3868 31.3415 18.4595 31.468 18.557 31.5743C18.6544 31.6807 18.7742 31.7641 18.9077 31.8187C19.0412 31.8732 19.1851 31.8976 19.3291 31.89C20.5342 31.89 21.3689 30.7777 21.4152 29.1078L21.4136 29.1089ZM23.5455 34.0689H21.1348L21.1801 32.9096C20.8162 33.3636 20.3479 33.7229 19.8153 33.957C19.2826 34.1911 18.7013 34.2931 18.1208 34.2543C16.5447 34.2543 15.4788 33.0493 15.4788 31.2414C15.4788 28.5072 17.3336 26.9317 20.5773 26.9317C20.9046 26.9317 21.3192 26.978 21.7824 27.0239C21.8481 26.7982 21.8793 26.5639 21.8751 26.3289C21.8751 25.5875 21.3651 25.3093 20.0203 25.3093C19.2084 25.2993 18.3985 25.3928 17.6102 25.5875L17.1928 25.7266L16.9146 25.773L17.3319 23.2701C18.456 22.9096 19.6282 22.722 20.8086 22.7136C23.3115 22.7136 24.6557 23.826 24.6557 25.9579C24.6378 26.7046 24.5603 27.4487 24.4238 28.1831L23.7747 32.1235L23.6819 32.818L23.6356 33.3744L23.5892 33.7923L23.5439 34.0694L23.5455 34.0689ZM67.302 29.1089C66.9747 29.1089 66.8383 29.0631 66.6534 29.0631C64.9846 29.0631 64.1494 29.6631 64.1494 30.7777C64.1345 30.9235 64.1515 31.0708 64.1992 31.2094C64.2469 31.348 64.3241 31.4746 64.4255 31.5804C64.527 31.6862 64.6502 31.7687 64.7867 31.8221C64.9232 31.8756 65.0696 31.8988 65.2159 31.89C66.3752 31.89 67.2551 30.7777 67.302 29.1078V29.1089ZM69.434 34.0689H67.0238L67.0696 32.9096C66.7059 33.3636 66.2378 33.723 65.7052 33.9571C65.1726 34.1913 64.5913 34.2932 64.0108 34.2543C62.4348 34.2543 61.3683 33.0493 61.3683 31.2414C61.3683 28.5072 63.2231 26.9317 66.4668 26.9317C66.7942 26.9317 67.2093 26.978 67.6261 27.0239C67.7004 26.7987 67.7473 26.5653 67.7657 26.3289C67.7657 25.5875 67.2551 25.3093 65.9109 25.3093C65.0843 25.2996 64.2596 25.3931 63.456 25.5875L63.0851 25.7266L62.8069 25.773L63.2236 23.2701C64.3477 22.9097 65.5199 22.722 66.7003 22.7136C69.2032 22.7136 70.501 23.826 70.501 25.9579C70.5076 26.706 70.43 27.4524 70.2697 28.1831L69.6696 32.1235L69.5769 32.818L69.4842 33.3744L69.4383 33.7923V34.0694L69.434 34.0689ZM77.2209 22.8516H76.9427C75.97 22.8516 75.4152 23.3153 74.5325 24.659L74.8107 22.9438H72.1682L70.4066 34.0683H73.2783C74.3448 27.2546 74.6231 26.0959 76.0136 26.0959H76.1991C76.4121 24.9813 76.7869 23.9038 77.3114 22.8975L77.2187 22.8516H77.2209Z" fill="white"/>
</svg>
