<svg width="71" height="55" viewBox="0 0 71 55" fill="none" xmlns="http://www.w3.org/2000/svg">
<path d="M57.1331 24.2222C57.1331 24.2222 58.0563 28.7437 58.2641 29.6909H54.2062L56.1509 24.4037C56.1269 24.4409 56.5512 23.2969 56.7941 22.5925L57.1331 24.2222ZM70.0022 5.83406V48.6128C70.0016 50.1599 69.3868 51.6435 68.2928 52.7375C67.1988 53.8314 65.7152 54.4463 64.1681 54.4469H5.83406C4.28695 54.4463 2.80337 53.8314 1.7094 52.7375C0.615424 51.6435 0.000579768 50.1599 0 48.6128V5.83406C0.000579768 4.28695 0.615424 2.80337 1.7094 1.7094C2.80337 0.615425 4.28695 0.000579768 5.83406 0H64.1681C65.7152 0.000579768 67.1988 0.615425 68.2928 1.7094C69.3868 2.80337 70.0016 4.28695 70.0022 5.83406ZM18.5347 36.3628L26.215 17.5022H21.0503L16.275 30.3844L15.7522 27.7725L14.0503 19.0947C13.7703 17.8916 12.9084 17.5503 11.8387 17.5022H3.97688L3.89156 17.8784C5.69204 18.3201 7.41911 19.0201 9.01906 19.9566L13.37 36.3628H18.5347ZM30.0081 36.3869L33.0706 17.5022H28.1859L25.1366 36.3869H30.0081ZM47.0094 30.2138C47.0334 28.0634 45.7209 26.4228 42.9144 25.0731C41.2016 24.2091 40.1559 23.6272 40.1559 22.7391C40.18 21.9362 41.0441 21.1094 42.9625 21.1094C44.212 21.0741 45.4536 21.3193 46.5959 21.8269L47.0334 22.0325L47.7028 17.9484C46.3063 17.4138 44.8231 17.1417 43.3278 17.1456C38.5022 17.1456 35.1116 19.7225 35.0875 23.3909C35.0503 26.1013 37.5178 27.6084 39.3662 28.5184C41.2497 29.4416 41.895 30.0497 41.895 30.8634C41.8709 32.1278 40.3638 32.7097 38.9659 32.7097C37.0213 32.7097 35.9756 32.4056 34.3831 31.7013L33.74 31.3972L33.0597 35.6387C34.2016 36.1616 36.3169 36.6231 38.5044 36.6472C43.6319 36.6581 46.9744 34.1184 47.0116 30.2072L47.0094 30.2138ZM64.1681 36.3869L60.2306 17.5022H56.4506C55.2847 17.5022 54.3966 17.8434 53.8978 19.0706L46.6419 36.3891H51.7694C51.7694 36.3891 52.6072 34.055 52.7909 33.5584H59.0625C59.2091 34.2278 59.6466 36.3891 59.6466 36.3891L64.1681 36.3869Z" fill="#005796"/>
</svg>
